<svg width="20.000038" height="19.999390" viewBox="0 0 20 19.9994" fill="none" xmlns="http://www.w3.org/2000/svg" xmlns:xlink="http://www.w3.org/1999/xlink">
	<desc>
			Created with Pixso.
	</desc>
	<defs/>
	<path id="Combined shape 16072" d="M0 10C0 4.48499 4.48608 0 9.99996 0C15.5138 0 20 4.48499 20 10C20 15.5139 15.5138 19.9994 9.99996 19.9994C4.48608 19.9994 0 15.5139 0 10ZM9.42112 13.5881L15.575 6.66504C15.8573 6.3468 15.8284 5.86072 15.5107 5.57849C15.1934 5.29565 14.7066 5.32422 14.4249 5.64246L8.7561 12.0193L5.48035 9.39893C5.1488 9.1333 4.66426 9.18762 4.39921 9.5188C4.13383 9.85107 4.18761 10.3354 4.51916 10.6005L8.3654 13.678C8.50731 13.7903 8.67691 13.8457 8.84571 13.8457C9.05846 13.8457 9.2696 13.7581 9.42112 13.5881Z" clip-rule="evenodd" fill="#C7D0DC" fill-opacity="1.000000" fill-rule="evenodd"/>
</svg>
