<svg width="25.000000" height="22.090088" viewBox="0 0 25 22.0901" fill="none" xmlns="http://www.w3.org/2000/svg" xmlns:xlink="http://www.w3.org/1999/xlink">
	<desc>
			Created with Pixso.
	</desc>
	<defs/>
	<path id="Vector" d="M0 22.09L0 7.93C0 3.56 3.07 0 6.86 0L18.13 0C21.92 0 25 3.56 25 7.93L25 10.37C25 14.75 21.92 18.31 18.13 18.31L7.02 18.31L0 22.09ZM6.86 1.76C3.92 1.76 1.52 4.53 1.52 7.93L1.52 19.31L6.68 16.54L18.13 16.54C21.07 16.54 23.47 13.77 23.47 10.37L23.47 7.93C23.47 4.53 21.07 1.76 18.13 1.76L6.86 1.76L6.86 1.76ZM7.36 7.8C8.16 7.8 8.82 8.55 8.82 9.48C8.82 10.41 8.16 11.16 7.36 11.16C6.56 11.16 5.91 10.41 5.91 9.48C5.91 8.55 6.56 7.8 7.36 7.8ZM17.63 7.8C18.43 7.8 19.08 8.55 19.08 9.48C19.08 10.41 18.43 11.16 17.63 11.16C16.82 11.16 16.17 10.41 16.17 9.48C16.17 8.55 16.82 7.8 17.63 7.8ZM12.49 7.8C13.3 7.8 13.95 8.55 13.95 9.48C13.95 10.41 13.3 11.16 12.49 11.16C11.69 11.16 11.04 10.41 11.04 9.48C11.04 8.55 11.69 7.8 12.49 7.8Z" fill="#B5C3CB" fill-opacity="1.000000" fill-rule="nonzero"/>
</svg>
