<svg width="195.000000" height="37.000000" viewBox="0 0 195 37" fill="none" xmlns="http://www.w3.org/2000/svg" xmlns:xlink="http://www.w3.org/1999/xlink">
	<desc>
			Created with Pixso.
	</desc>
	<defs>
		<clipPath id="clip1_27">
			<rect id="S 1" rx="-0.500000" width="26.000000" height="36.000000" transform="translate(0.500000 0.500000)" fill="white" fill-opacity="0"/>
		</clipPath>
		<linearGradient x1="16.410202" y1="-16.693621" x2="10.470840" y2="20.646982" id="paint_linear_1_32_0" gradientUnits="userSpaceOnUse">
			<stop stop-color="#0096D9"/>
			<stop offset="1.000000" stop-color="#00C198"/>
		</linearGradient>
		<linearGradient x1="9.135366" y1="13.617897" x2="18.658215" y2="32.348038" id="paint_linear_1_33_0" gradientUnits="userSpaceOnUse">
			<stop stop-color="#002DD9"/>
			<stop offset="1.000000" stop-color="#00B2AB"/>
		</linearGradient>
		<linearGradient x1="23.807121" y1="-3.424574" x2="5.775082" y2="38.040092" id="paint_linear_1_34_0" gradientUnits="userSpaceOnUse">
			<stop stop-color="#3482C0"/>
			<stop offset="0.450000" stop-color="#96BEDE"/>
			<stop offset="0.830000" stop-color="#E1EDF6"/>
			<stop offset="1.000000" stop-color="#FFFFFF"/>
		</linearGradient>
		<linearGradient x1="1361.365845" y1="132.275635" x2="418.983887" y2="2629.420410" id="paint_linear_1_36_0" gradientUnits="userSpaceOnUse">
			<stop stop-color="#3482C0"/>
			<stop offset="0.450000" stop-color="#96BEDE"/>
			<stop offset="0.830000" stop-color="#E1EDF6"/>
			<stop offset="1.000000" stop-color="#FFFFFF"/>
		</linearGradient>
		<linearGradient x1="25.673243" y1="3.267838" x2="10.350721" y2="32.587090" id="paint_linear_1_37_0" gradientUnits="userSpaceOnUse">
			<stop stop-color="#569FA1"/>
			<stop offset="0.360000" stop-color="#97C4C5"/>
			<stop offset="0.800000" stop-color="#E2EEEF"/>
			<stop offset="1.000000" stop-color="#FFFFFF"/>
		</linearGradient>
		<radialGradient gradientTransform="translate(21.5938 32.3818) rotate(0) scale(27.8184 27.5367)" cx="0.000000" cy="0.000000" r="1.000000" id="paint_radial_1_38_0" gradientUnits="userSpaceOnUse">
			<stop stop-color="#FFFF00"/>
			<stop offset="1.000000" stop-color="#000000"/>
		</radialGradient>
	</defs>
	<g opacity="0.800000">
		<path id="Petro" d="M157.73 15.34Q157.95 15.23 158.13 15.05C158.43 14.77 158.57 14.42 158.57 14.01C158.57 13.59 158.43 13.24 158.13 12.96C157.84 12.68 157.48 12.53 157.05 12.53Q156.67 12.53 156.37 12.68Q156.15 12.78 155.97 12.96C155.67 13.24 155.53 13.59 155.53 14.01C155.53 14.42 155.67 14.77 155.97 15.05C156.26 15.34 156.62 15.48 157.05 15.48Q157.43 15.48 157.73 15.34ZM44.48 23.09L41.64 23.09Q41.68 24.21 42.18 25.07Q42.56 25.72 43.21 26.22Q44.73 27.35 47.27 27.35Q49.9 27.35 51.44 26.15Q52.13 25.61 52.51 24.91Q52.99 24.03 52.99 22.89Q52.99 21.63 52.4 20.78Q52.24 20.54 52.02 20.33Q51.05 19.37 48.93 18.92L47.23 18.56C46.41 18.37 45.82 18.14 45.46 17.88C45.1 17.61 44.92 17.26 44.92 16.83Q44.92 16.48 45.05 16.2Q45.22 15.84 45.58 15.57C46.03 15.25 46.62 15.09 47.35 15.09Q48.47 15.09 49.18 15.61C49.66 15.95 49.92 16.41 49.97 17.01L52.73 17.01Q52.71 15.95 52.26 15.13Q51.89 14.45 51.24 13.93Q49.78 12.77 47.34 12.77Q45.1 12.77 43.63 13.83Q43.54 13.89 43.46 13.96Q42.72 14.54 42.34 15.3Q41.95 16.1 41.95 17.08Q41.95 18.17 42.43 18.98Q43.31 20.48 45.83 21.02L47.66 21.42Q48.94 21.7 49.49 22.12C49.86 22.4 50.04 22.77 50.04 23.23Q50.04 23.49 49.95 23.73Q49.78 24.18 49.3 24.52Q48.56 25.01 47.39 25.01Q46.21 25.01 45.39 24.49C44.85 24.13 44.55 23.66 44.48 23.09ZM119.68 27.1L119.68 24.66L113.52 24.66L113.52 13.01L110.57 13.01L110.57 27.1L119.68 27.1ZM144.43 25.82C145.2 26.79 146.24 27.27 147.55 27.27C148.3 27.27 148.97 27.09 149.55 26.73C150.13 26.38 150.55 25.9 150.81 25.31L150.86 25.31L150.86 27.1L153.67 27.1L153.67 13.01L150.82 13.01L150.82 18.43L150.76 18.43C150.5 17.84 150.09 17.36 149.52 17.01C148.96 16.65 148.31 16.47 147.57 16.47Q146.42 16.47 145.55 16.96Q144.92 17.31 144.43 17.91C143.66 18.88 143.28 20.19 143.28 21.85C143.28 23.52 143.66 24.85 144.43 25.82ZM58.17 14.22L55.32 14.22L55.32 16.64L53.85 16.64L53.85 18.78L55.32 18.78L55.32 24.28Q55.32 25.78 56.06 26.45Q56.08 26.46 56.1 26.48C56.63 26.92 57.51 27.14 58.74 27.14C59.31 27.14 59.76 27.1 60.1 27.03L60.1 24.93C59.9 24.96 59.67 24.98 59.4 24.98C58.58 24.98 58.17 24.58 58.17 23.79L58.17 18.78L60.11 18.78L60.11 16.64L58.17 16.64L58.17 14.22ZM83.43 14.22L80.58 14.22L80.58 16.64L79.1 16.64L79.1 18.78L80.58 18.78L80.58 24.28C80.58 25.3 80.84 26.04 81.36 26.48C81.88 26.92 82.76 27.14 83.99 27.14C84.57 27.14 85.02 27.1 85.35 27.03L85.35 24.93C85.16 24.96 84.92 24.98 84.66 24.98C83.84 24.98 83.43 24.58 83.43 23.79L83.43 18.78L85.36 18.78L85.36 16.64L83.43 16.64L83.43 14.22ZM62.17 26.38C62.83 26.97 63.67 27.27 64.68 27.27C65.35 27.27 65.98 27.11 66.56 26.8C67.15 26.48 67.58 26.05 67.87 25.5L67.93 25.5L67.93 27.1L70.68 27.1L70.68 19.91C70.68 18.85 70.28 18.01 69.47 17.37C68.66 16.73 67.59 16.41 66.25 16.41Q64.2 16.41 62.96 17.36Q62.33 17.84 62 18.47Q61.68 19.08 61.64 19.84L64.25 19.84C64.32 19.44 64.52 19.13 64.84 18.89C65.17 18.66 65.6 18.54 66.12 18.54C66.66 18.54 67.09 18.68 67.4 18.95C67.72 19.22 67.88 19.6 67.88 20.08L67.88 20.78L65.24 20.93C63.93 21.01 62.93 21.32 62.23 21.86C61.52 22.4 61.17 23.15 61.17 24.1Q61.17 24.89 61.49 25.52Q61.74 26 62.17 26.38ZM121.78 26.38C122.44 26.97 123.28 27.27 124.29 27.27C124.96 27.27 125.59 27.11 126.17 26.8C126.76 26.48 127.19 26.05 127.48 25.5L127.54 25.5L127.54 27.1L130.29 27.1L130.29 19.91C130.29 18.85 129.89 18.01 129.08 17.37C128.27 16.73 127.2 16.41 125.86 16.41C124.49 16.41 123.39 16.73 122.57 17.36Q121.94 17.84 121.61 18.47Q121.29 19.08 121.25 19.84L123.86 19.84C123.93 19.44 124.13 19.13 124.45 18.89C124.78 18.66 125.21 18.54 125.73 18.54C126.27 18.54 126.7 18.68 127.01 18.95C127.33 19.22 127.49 19.6 127.49 20.08L127.49 20.78L124.85 20.93C123.54 21.01 122.54 21.32 121.84 21.86C121.13 22.4 120.78 23.15 120.78 24.1Q120.78 24.89 121.1 25.52Q121.35 26 121.78 26.38ZM132.14 16.64L132.14 27.1L134.99 27.1L134.99 21.1C134.99 20.41 135.18 19.86 135.56 19.44Q135.76 19.22 136 19.07Q136.46 18.8 137.08 18.8Q137.87 18.8 138.34 19.19Q138.43 19.27 138.52 19.36C138.84 19.73 139 20.26 139 20.95L139 27.1L141.85 27.1L141.85 20.36C141.85 19.13 141.54 18.17 140.91 17.48C140.28 16.79 139.38 16.44 138.22 16.44Q137.03 16.44 136.2 16.98C135.65 17.33 135.24 17.84 134.95 18.5L134.89 18.5L134.89 16.64L132.14 16.64ZM160.38 16.64L160.38 27.1L163.23 27.1L163.23 21.1C163.23 20.41 163.42 19.86 163.8 19.44Q164 19.22 164.25 19.07Q164.71 18.8 165.32 18.8Q166.11 18.8 166.58 19.19Q166.68 19.27 166.76 19.36C167.08 19.73 167.25 20.26 167.25 20.95L167.25 27.1L170.1 27.1L170.1 20.36C170.1 19.13 169.78 18.17 169.15 17.48C168.52 16.79 167.62 16.44 166.46 16.44Q165.27 16.44 164.44 16.98C163.9 17.33 163.48 17.84 163.19 18.5L163.13 18.5L163.13 16.64L160.38 16.64ZM72.53 16.64L72.53 27.1L75.38 27.1L75.38 21.25Q75.38 20.23 75.88 19.63Q75.92 19.58 75.97 19.54Q76.07 19.43 76.18 19.34Q76.73 18.92 77.61 18.92C78.03 18.92 78.37 18.98 78.64 19.09L78.64 16.58C78.4 16.51 78.13 16.47 77.83 16.47C77.21 16.47 76.69 16.65 76.26 17C75.83 17.35 75.52 17.86 75.34 18.52L75.28 18.52L75.28 16.64L72.53 16.64ZM106.67 17Q105.77 16.47 104.56 16.47C103.81 16.47 103.15 16.65 102.59 17C102.03 17.35 101.6 17.84 101.32 18.46L101.26 18.46L101.26 16.64L98.45 16.64L98.45 30.52L101.3 30.52L101.3 25.35L101.36 25.35C101.64 25.95 102.06 26.42 102.63 26.76C103.2 27.1 103.86 27.27 104.61 27.27Q105.79 27.27 106.67 26.76Q107.26 26.41 107.71 25.83C108.47 24.87 108.85 23.55 108.85 21.87C108.85 20.18 108.46 18.86 107.69 17.91Q107.25 17.34 106.67 17ZM173.33 30.15C174.21 30.75 175.33 31.05 176.69 31.05C178.26 31.05 179.53 30.68 180.48 29.94Q181.15 29.42 181.5 28.74Q181.91 27.95 181.91 26.96L181.91 16.64L179.1 16.64L179.1 18.46L179.05 18.46C178.77 17.85 178.35 17.36 177.78 17.01C177.22 16.65 176.56 16.47 175.82 16.47C174.49 16.47 173.44 16.95 172.68 17.91C171.91 18.86 171.52 20.17 171.52 21.83C171.52 23.45 171.91 24.73 172.68 25.67C173.45 26.61 174.48 27.08 175.77 27.08Q176.76 27.08 177.56 26.68Q177.66 26.63 177.76 26.57C178.34 26.22 178.76 25.77 179 25.2L179.06 25.2L179.06 27.04C179.06 27.65 178.86 28.15 178.46 28.51C178.05 28.88 177.49 29.07 176.77 29.07C176.23 29.07 175.77 28.95 175.38 28.73C175 28.5 174.75 28.21 174.64 27.85L171.85 27.85C171.96 28.79 172.46 29.56 173.33 30.15ZM96.59 27.1L96.59 16.64L93.74 16.64L93.74 22.63Q93.74 23.57 93.29 24.18Q93.24 24.24 93.18 24.3C92.81 24.72 92.31 24.93 91.68 24.93C91.05 24.93 90.56 24.74 90.22 24.38C89.89 24.02 89.73 23.48 89.73 22.79L89.73 16.64L86.87 16.64L86.87 23.38Q86.87 24.92 87.61 25.92Q87.74 26.09 87.9 26.25C88.58 26.95 89.5 27.3 90.64 27.3Q91.86 27.3 92.67 26.72Q93.39 26.2 93.78 25.22L93.84 25.22L93.84 27.1L96.59 27.1ZM155.62 16.64L155.62 27.1L158.48 27.1L158.48 16.64L155.62 16.64ZM105.29 24.14C104.88 24.7 104.31 24.98 103.6 24.98C102.9 24.98 102.34 24.7 101.91 24.14C101.5 23.57 101.29 22.81 101.29 21.87C101.29 20.93 101.5 20.18 101.92 19.61C102.35 19.04 102.91 18.75 103.6 18.75C104.31 18.75 104.88 19.04 105.29 19.6C105.72 20.16 105.93 20.92 105.93 21.87C105.93 22.82 105.72 23.58 105.29 24.14ZM147.5 18.99Q147.94 18.75 148.52 18.75C149.22 18.75 149.79 19.04 150.2 19.6C150.63 20.16 150.84 20.92 150.84 21.87C150.84 22.83 150.63 23.59 150.2 24.15C149.79 24.7 149.22 24.98 148.52 24.98Q147.93 24.98 147.48 24.73Q147.1 24.53 146.82 24.15Q146.2 23.32 146.2 21.87Q146.2 20.43 146.82 19.59Q147.11 19.2 147.5 18.99ZM178.44 24.08C178.02 24.61 177.45 24.88 176.74 24.88C176.03 24.88 175.47 24.61 175.06 24.08Q174.44 23.28 174.44 21.85Q174.44 20.42 175.06 19.59C175.47 19.03 176.03 18.75 176.74 18.75Q177.28 18.75 177.72 18.98Q178.13 19.19 178.44 19.59C178.86 20.15 179.07 20.91 179.07 21.85C179.07 22.79 178.86 23.54 178.44 24.08ZM67.22 24.66C66.78 25.03 66.25 25.21 65.61 25.21Q64.88 25.21 64.44 24.87C64.15 24.64 64 24.33 64 23.94C64 23.57 64.15 23.27 64.43 23.04C64.73 22.81 65.14 22.68 65.67 22.64L67.88 22.5L67.88 23.27C67.88 23.83 67.66 24.29 67.22 24.66ZM126.83 24.66C126.39 25.03 125.86 25.21 125.22 25.21Q124.49 25.21 124.05 24.87C123.76 24.64 123.61 24.33 123.61 23.94C123.61 23.57 123.76 23.27 124.04 23.04C124.34 22.81 124.75 22.68 125.28 22.64L127.49 22.5L127.49 23.27C127.49 23.83 127.27 24.29 126.83 24.66Z" fill="#02073E" fill-opacity="1.000000" fill-rule="evenodd"/>
	</g>
	<rect id="S 1" rx="-0.500000" width="26.000000" height="36.000000" transform="translate(0.500000 0.500000)" fill="#FFFFFF" fill-opacity="0"/>
	<g clip-path="url(#clip1_27)">
		<path id="Vector" d="M20.21 0.53C16.79 -0.37 13.16 -0.14 9.89 1.21C6.62 2.55 3.89 4.92 2.13 7.96C0.36 11 -0.34 14.53 0.14 18C0.61 21.47 2.23 24.69 4.74 27.16L22.62 9.46C23.29 8.8 23.77 7.97 24.02 7.07C24.26 6.16 24.26 5.21 24.02 4.31C23.77 3.4 23.29 2.58 22.62 1.91C21.95 1.25 21.12 0.78 20.21 0.53Z" fill="url(#paint_linear_1_32_0)" fill-opacity="1.000000" fill-rule="nonzero"/>
		<path id="Vector" d="M6.78 36.45C10.2 37.37 13.83 37.13 17.11 35.79C20.38 34.44 23.11 32.07 24.87 29.03C26.64 25.99 27.34 22.45 26.87 18.98C26.39 15.5 24.77 12.28 22.26 9.81L4.37 27.53C3.7 28.19 3.22 29.02 2.97 29.92C2.73 30.82 2.73 31.78 2.97 32.68C3.22 33.59 3.7 34.41 4.37 35.07C5.04 35.74 5.87 36.21 6.78 36.45Z" fill="url(#paint_linear_1_33_0)" fill-opacity="1.000000" fill-rule="nonzero"/>
		<g style="mix-blend-mode:multiply">
			<path id="Vector" d="M22.26 9.81L4.37 27.53C3.7 28.19 3.22 29.02 2.97 29.92C2.73 30.82 2.73 31.78 2.97 32.68C3.22 33.59 3.7 34.41 4.37 35.07C5.04 35.74 5.87 36.21 6.78 36.45C8.7 36.96 10.69 37.11 12.65 36.9C4.81 29.43 22.26 9.81 22.26 9.81Z" fill="url(#paint_linear_1_34_0)" fill-opacity="1.000000" fill-rule="nonzero"/>
		</g>
		<g style="mix-blend-mode:multiply">
			<g style="mix-blend-mode:multiply">
				<path id="Vector" d="M6.46 36.36C3.92 28.58 19.16 12.9 21.86 10.22L4.37 27.53C3.72 28.17 3.25 28.97 3 29.84C2.75 30.71 2.72 31.63 2.93 32.52C3.14 33.4 3.57 34.22 4.19 34.89C4.81 35.56 5.59 36.07 6.46 36.36Z" fill="url(#paint_linear_1_36_0)" fill-opacity="1.000000" fill-rule="nonzero"/>
			</g>
			<g style="mix-blend-mode:multiply">
				<path id="Vector" d="M22.2 9.88C22.22 9.86 22.23 9.84 22.26 9.83L22.2 9.88Z" fill="url(#paint_linear_1_37_0)" fill-opacity="1.000000" fill-rule="nonzero"/>
			</g>
		</g>
		<g style="mix-blend-mode:screen">
			<path id="Vector" d="M23.94 7.36L4.72 27.15L22.62 9.46C23.22 8.87 23.67 8.15 23.94 7.36Z" fill="url(#paint_radial_1_38_0)" fill-opacity="1.000000" fill-rule="nonzero"/>
		</g>
	</g>
</svg>
