<svg width="49.894501" height="30.911255" viewBox="0 0 49.8945 30.9113" fill="none" xmlns="http://www.w3.org/2000/svg" xmlns:xlink="http://www.w3.org/1999/xlink">
	<desc>
			Created with Pixso.
	</desc>
	<defs/>
	<path id="Shape 1" d="M49.89 27.14L49.77 23.4C49.76 23.09 49.69 22.78 49.56 22.5C49.43 22.22 49.25 21.96 49.03 21.74C48.8 21.53 48.53 21.36 48.24 21.25C47.95 21.14 47.64 21.09 47.33 21.1L46.82 21.12C45.86 17.02 43.72 13.31 40.66 10.43L40.62 10.4C38.73 8.62 36.54 7.19 34.13 6.19L40.68 6C41.06 6.96 41.76 7.77 42.68 8.27C43.59 8.76 44.65 8.92 45.66 8.72C46.68 8.51 47.59 7.95 48.24 7.13C48.88 6.32 49.22 5.3 49.18 4.26C49.15 3.1 48.65 1.99 47.8 1.19C47.38 0.79 46.88 0.48 46.34 0.28C45.8 0.07 45.22 -0.02 44.65 0C43.48 0.03 42.38 0.53 41.57 1.38C41.13 1.85 40.79 2.42 40.59 3.04L28.8 3.4L28.78 3C28.78 2.68 28.71 2.38 28.58 2.09C28.45 1.81 28.27 1.55 28.04 1.34C27.81 1.13 27.55 0.96 27.25 0.85C26.96 0.74 26.65 0.69 26.34 0.7L22.57 0.8C22.26 0.81 21.95 0.88 21.67 1.01C21.38 1.13 21.13 1.32 20.91 1.54C20.7 1.77 20.53 2.04 20.42 2.33C20.32 2.62 20.26 2.93 20.28 3.24L20.29 3.64L8.5 3.99C8.12 3.02 7.42 2.22 6.5 1.72C5.59 1.22 4.53 1.07 3.52 1.27C2.5 1.48 1.59 2.04 0.94 2.86C0.3 3.67 -0.04 4.69 0 5.72C0.03 6.76 0.43 7.75 1.12 8.53C1.81 9.3 2.75 9.8 3.78 9.94C4.81 10.09 5.85 9.87 6.73 9.32C7.61 8.77 8.27 7.92 8.58 6.94L15.13 6.74C12.08 8.23 9.43 10.43 7.39 13.15C5.35 15.87 3.99 19.04 3.42 22.39L2.79 22.41C2.16 22.43 1.57 22.7 1.13 23.16C0.7 23.62 0.47 24.23 0.49 24.86L0.61 28.61C0.62 28.92 0.69 29.22 0.82 29.51C0.94 29.79 1.13 30.05 1.35 30.26C1.58 30.48 1.85 30.64 2.14 30.75C2.43 30.86 2.74 30.92 3.05 30.91L6.8 30.79C7.43 30.77 8.03 30.5 8.46 30.05C8.89 29.59 9.12 28.98 9.1 28.35L8.98 24.6C8.98 24.28 8.91 23.98 8.78 23.69C8.65 23.41 8.47 23.15 8.24 22.94C8.01 22.72 7.75 22.56 7.46 22.45C7.16 22.34 6.85 22.29 6.54 22.3L6.43 22.3C7.16 18.78 8.88 15.56 11.41 13.01C13.93 10.46 17.14 8.69 20.64 7.93C20.76 8.2 20.94 8.44 21.16 8.64C21.38 8.85 21.65 9.02 21.94 9.13C22.23 9.24 22.54 9.29 22.86 9.28L26.61 9.17C27.07 9.15 27.51 9.01 27.89 8.74C28.26 8.48 28.56 8.11 28.73 7.69C32.28 8.24 35.59 9.81 38.27 12.2C40.95 14.59 42.88 17.71 43.82 21.18L43.59 21.18C42.96 21.2 42.37 21.47 41.93 21.93C41.5 22.39 41.27 23 41.29 23.63L41.41 27.38C41.42 27.69 41.49 28 41.62 28.28C41.74 28.57 41.93 28.82 42.15 29.04C42.38 29.25 42.65 29.42 42.94 29.53C43.23 29.64 43.54 29.69 43.85 29.68L47.6 29.57C47.91 29.56 48.22 29.49 48.5 29.36C48.78 29.23 49.04 29.05 49.25 28.83C49.46 28.6 49.63 28.34 49.74 28.05C49.85 27.76 49.9 27.45 49.89 27.14ZM6.14 27.9L3.51 27.97L3.42 25.35L6.05 25.27L6.14 27.9ZM44.72 2.93C45.01 2.93 45.29 3 45.53 3.16C45.78 3.31 45.97 3.53 46.09 3.79C46.21 4.06 46.24 4.35 46.2 4.63C46.15 4.92 46.02 5.18 45.82 5.39C45.62 5.6 45.37 5.74 45.09 5.81C44.81 5.87 44.51 5.85 44.24 5.75C43.97 5.65 43.74 5.47 43.57 5.24C43.41 5 43.31 4.72 43.3 4.43C43.3 4.24 43.33 4.05 43.4 3.87C43.47 3.7 43.57 3.53 43.7 3.39C43.97 3.11 44.33 2.95 44.72 2.93ZM4.44 7.07C4.15 7.08 3.86 7 3.62 6.85C3.38 6.7 3.18 6.48 3.07 6.21C2.95 5.95 2.91 5.66 2.96 5.38C3.01 5.09 3.14 4.83 3.33 4.62C3.53 4.41 3.79 4.26 4.07 4.2C4.35 4.13 4.64 4.15 4.91 4.26C5.18 4.36 5.41 4.54 5.58 4.77C5.75 5.01 5.84 5.29 5.85 5.57C5.86 5.76 5.82 5.96 5.76 6.13C5.69 6.31 5.58 6.48 5.45 6.62C5.32 6.76 5.16 6.87 4.99 6.95C4.81 7.03 4.63 7.07 4.43 7.07L4.44 7.07ZM23.31 6.35L23.22 3.72L25.85 3.65L25.9 4.95L25.94 6.26L23.31 6.35ZM44.31 26.74L44.23 24.11L46.86 24.04L46.94 26.66L44.31 26.74Z" fill="#FFFFFF" fill-opacity="1.000000" fill-rule="nonzero"/>
</svg>
