<svg width="39.000000" height="39.000000" viewBox="0 0 39 39" fill="none" xmlns="http://www.w3.org/2000/svg" xmlns:xlink="http://www.w3.org/1999/xlink">
	<desc>
			Created with Pixso.
	</desc>
	<defs>
		<clipPath id="clip1_77">
			<rect id="sports-and-competition 1" rx="-0.500000" width="38.000000" height="38.000000" transform="translate(0.500000 0.500000)" fill="white" fill-opacity="0"/>
		</clipPath>
	</defs>
	<rect id="sports-and-competition 1" rx="-0.500000" width="38.000000" height="38.000000" transform="translate(0.500000 0.500000)" fill="#FFFFFF" fill-opacity="0"/>
	<g clip-path="url(#clip1_77)">
		<path id="Vector" d="M31.68 2.43L31.68 0L7.31 0L7.31 2.43L0 2.43L0 10.96C0 17.87 5.25 23.58 11.97 24.29C13.42 26.5 15.15 28.05 17.06 28.78L17.06 31.68C17.06 33.03 15.97 34.12 14.62 34.12C11.93 34.12 9.75 36.3 9.75 39L29.25 39C29.25 36.3 27.06 34.12 24.37 34.12C23.02 34.12 21.93 33.03 21.93 31.68L21.93 28.79C23.85 28.07 25.57 26.5 27.02 24.29C33.74 23.58 39 17.87 39 10.96L39 2.43L31.68 2.43ZM4.87 10.96L4.87 7.31L7.37 7.31C7.55 11.42 8.21 15.17 9.23 18.36C6.64 16.9 4.87 14.15 4.87 10.96L4.87 10.96ZM9.75 4.87L9.75 2.43L12.18 2.43L12.18 4.87C12.18 16.05 15.91 25.27 20.71 26.62C20.31 26.73 19.91 26.81 19.5 26.81C14.11 26.81 9.75 16.99 9.75 4.87L9.75 4.87ZM34.12 10.96C34.12 14.15 32.35 16.9 29.76 18.36C30.78 15.17 31.44 11.42 31.62 7.31L34.12 7.31L34.12 10.96L34.12 10.96Z" fill="#FFFFFF" fill-opacity="1.000000" fill-rule="nonzero"/>
	</g>
</svg>
