<svg width="50.000000" height="50.000000" viewBox="0 0 50 50" fill="none" xmlns="http://www.w3.org/2000/svg" xmlns:xlink="http://www.w3.org/1999/xlink">
	<desc>
			Created with Pixso.
	</desc>
	<defs>
		<clipPath id="clip1_55">
			<rect id="art-and-design 1" rx="-0.500000" width="49.000000" height="49.000000" transform="matrix(-5.20417e-18 -1 -1 5.20417e-18 50.5 50.5)" fill="white" fill-opacity="0"/>
		</clipPath>
	</defs>
	<rect id="art-and-design 1" rx="-0.500000" width="49.000000" height="49.000000" transform="matrix(-5.20417e-18 -1 -1 5.20417e-18 50.5 50.5)" fill="#FFFFFF" fill-opacity="0"/>
	<g clip-path="url(#clip1_55)">
		<path id="Vector" d="M50 18.75L48.3 20.44C47.35 21.39 46.26 22.18 45.06 22.78L41.48 24.56L25.43 8.51L27.21 4.93C27.81 3.73 28.6 2.64 29.55 1.69L31.25 0C31.25 0 50 18.75 50 18.75Z" fill="#FFFFFF" fill-opacity="1.000000" fill-rule="nonzero"/>
		<path id="Vector" d="M37.25 29.17C33.33 35.37 34.37 40.62 34.37 40.62L6.1e-5 50L9.37 15.62C9.37 15.62 14.62 16.66 20.82 12.74C20.82 12.74 37.25 29.17 37.25 29.17ZM12.5 32.81C12.5 35.4 14.59 37.5 17.18 37.5C19.77 37.5 21.87 35.4 21.87 32.81C21.87 30.22 19.77 28.12 17.18 28.12C14.59 28.12 12.5 30.22 12.5 32.81Z" fill="#FFFFFF" fill-opacity="1.000000" fill-rule="nonzero"/>
	</g>
</svg>
