<svg width="248.413498" height="118.780518" viewBox="0 0 248.413 118.781" fill="none" xmlns="http://www.w3.org/2000/svg" xmlns:xlink="http://www.w3.org/1999/xlink">
	<desc>
			Created with Pixso.
	</desc>
	<defs/>
	<g opacity="0.500000">
		<path id="Vector" d="M176.47 29.35C183.91 24.78 192.3 21.93 200.7 21.12C207.87 20.42 215.31 21.2 222.4 23.35L222.64 20.5C215.27 18.37 207.77 17.63 200.44 18.33C191.61 19.18 182.82 22.17 175.01 26.96C167.2 31.74 160.58 38.24 155.82 45.74C154.48 47.85 153.3 50.03 152.27 52.26C140.09 55.88 129.25 62.59 119.31 69.4C116.89 71.06 114.45 72.78 112.09 74.44C103.48 80.49 94.58 86.73 85.02 91.37C74.24 96.6 62.16 99.84 50.08 100.72C37.67 101.63 25.63 100.16 14.29 96.35C9.64 94.78 5.12 92.81 0.85 90.5L0.59 93.51C4.74 95.66 8.99 97.49 13.41 98.98C20.31 101.3 27.49 102.78 34.82 103.41C39.9 103.85 45.07 103.87 50.29 103.49C62.71 102.58 75.14 99.25 86.25 93.87C96 89.13 105 82.83 113.69 76.72C116.04 75.06 118.48 73.35 120.89 71.71C130.04 65.44 139.92 59.28 150.86 55.64C147.56 64.34 146.68 73.5 148.48 81.89C149.8 88.12 152.71 93.98 156.89 98.84C161.21 103.88 166.61 107.49 172.51 109.27C178.55 111.1 185.27 110.85 191.45 108.61C197.78 106.3 202.92 102.05 205.92 96.66C209.25 90.7 210 83.38 208.04 76.05C206.19 69.12 201.98 62.67 196.49 58.36C191.17 54.18 184.7 51.47 177.31 50.32C170.61 49.27 163.35 49.59 156.32 51.22C156.16 51.27 156.01 51.29 155.85 51.34C156.55 49.96 157.34 48.6 158.18 47.27C162.71 40.1 169.03 33.91 176.47 29.35ZM156.94 53.92C163.63 52.37 170.53 52.08 176.87 53.07C183.8 54.15 189.83 56.67 194.77 60.55C199.79 64.49 203.64 70.4 205.34 76.76C207.1 83.39 206.44 89.97 203.48 95.29C198.03 105.09 184.76 110.06 173.3 106.6C167.91 104.97 162.97 101.66 158.99 97.02C155.12 92.5 152.42 87.08 151.18 81.31C149.35 72.8 150.49 63.4 154.28 54.6C155.17 54.34 156.06 54.12 156.94 53.92Z" fill="#FFFFFF" fill-opacity="1.000000" fill-rule="nonzero"/>
		<path id="Vector" d="M248.41 29.76L221.85 5.52L221.46 16.19L240.06 26.33L221.32 20.13L221.32 20.14L221.32 20.13L213.12 22.83L221.1 26.12L220.83 33.7L248.41 29.76Z" fill="#FFFFFF" fill-opacity="1.000000" fill-rule="nonzero"/>
	</g>
</svg>
